<svg xmlns="http://www.w3.org/2000/svg" viewBox="0 0 1600 900" preserveAspectRatio="xMidYMid slice" width="1600" height="900">
  <defs>
    <linearGradient id="water" x1="0" y1="0" x2="0" y2="1">
      <stop offset="0" stop-color="#4a7f88"></stop>
      <stop offset="0.52" stop-color="#356470"></stop>
      <stop offset="1" stop-color="#254c5c"></stop>
    </linearGradient>
    <linearGradient id="sand" x1="0" y1="0" x2="0" y2="1">
      <stop offset="0" stop-color="#4a5a62"></stop>
      <stop offset="1" stop-color="#3d4c54"></stop>
    </linearGradient>
    <linearGradient id="ray" x1="0" y1="0" x2="0" y2="1">
      <stop offset="0" stop-color="#aadcee" stop-opacity="0.11"></stop>
      <stop offset="0.65" stop-color="#aadcee" stop-opacity="0"></stop>
    </linearGradient>
    <filter id="soft" x="-40%" y="-40%" width="180%" height="180%"><feGaussianBlur stdDeviation="12"></feGaussianBlur></filter>
  </defs>


  <rect width="1600" height="900" fill="url(#water)"></rect>


  <g filter="url(#soft)">
    <rect x="448" y="-72" width="150" height="1080" fill="url(#ray)" transform="rotate(10 523 450)">

    </rect>
    <rect x="1056" y="-72" width="110" height="1080" fill="url(#ray)" transform="rotate(10 1111 450)">

    </rect>
  </g>


  <path d="M0,35 C 200,8 323,8 523,35 C 723,62 862,62 1062,35 C 1262,8 1400,8 1600,35 L1600,0 L0,0 Z" fill="#a0d7e4" opacity="0.2"></path>


  <g fill="#c8e8f0" opacity="0.55">
    <circle cx="263" cy="666" r="7"></circle>
    <circle cx="800" cy="684" r="5"></circle>
    <circle cx="1288" cy="675" r="8"></circle>
  </g>


  <path d="M0,777 C 400,691 1200,691 1600,777 L1600,900 L0,900 Z" fill="url(#sand)"></path>
  <path d="M0,777 C 400,691 1200,691 1600,777" fill="none" stroke="#3d4c54" stroke-width="8"></path>


  <path d="M840,864 C 834,832 858,806 892,806 C 928,806 950,832 944,864 Z" fill="#61737d"></path>


  <ellipse cx="1142" cy="833" rx="22" ry="13" fill="#6c7e88"></ellipse>
  <ellipse cx="1230" cy="846" rx="14" ry="9" fill="#5f6d78"></ellipse>


  <g>

    <path d="M172,837 C 150,805 190,789 168,757 C 154,737 178,723 174,709" fill="none" stroke="#468a70" stroke-width="18" stroke-linecap="round"></path>
    <path d="M188,837 C 204,809 178,793 196,763 C 206,747 192,729 196,715" fill="none" stroke="#5aa688" stroke-width="14" stroke-linecap="round"></path>
  </g>


  <g>

    <path d="M374,846 C 360,824 386,814 372,792 C 366,782 378,776 376,772" fill="none" stroke="#5aa688" stroke-width="13" stroke-linecap="round"></path>
  </g>
</svg>
